# xmcd
#
# Track frame offsets:
#	150
#	16737
#	32977
#	54530
#	67425
#	83375
#	97745
#	107227
#	126770
#	148245
#
# Disc length: 2241 seconds
#
# Revision: 0
# Processed by: cddbd v1.5.2PL0 Copyright (c) Steve Scherf et al.
# Submitted via: EasyCDDAExtractor 10.2.0.1
#
DISCID=8508bf0a
DTITLE=Various Artist - Sims Records Comp Vol.21
DYEAR=2004
DGENRE=Gospel
TTITLE0=Ricky Ryan - I've Got Forever
TTITLE1=Jerry Trammell - It's Good To Be Home
TTITLE2=Steve Warren - His Love Ran Down The Cross
TTITLE3=Sheila Denham - Jesus Dot Com
TTITLE4=Nicola Wyatt - God's Word Will Stand
TTITLE5=Karin Harlow - Come To The Cross
TTITLE6=Ray Michell - Talking On My Knees
TTITLE7=Carson Howard - No More Lambs
TTITLE8=Robin Saito - He Didn't Look Like A King, But He Was
TTITLE9=Connie Jones - When I Need An Anchor
EXTD=
EXTT0=
EXTT1=
EXTT2=
EXTT3=
EXTT4=
EXTT5=
EXTT6=
EXTT7=
EXTT8=
EXTT9=
PLAYORDER=
